<?xml version="1.0" encoding="UTF-8" standalone="no"?> <svg id="Glyph" xmlns="http://www.w3.org/2000/svg" viewBox="0 0 64 64"><title>1</title><path d="M32,4A28.03075,28.03075,0,0,0,4,32c1.537,37.146,54.46871,37.1352,56.00005-.00021A28.03078,28.03078,0,0,0,32,4Zm.54,7.48c6.6059.21289,6.60541,9.78158-.00011,10C25.9315,21.26727,25.93411,11.68518,32.54,11.48Zm1.19,41.04H32.27a6.03015,6.03015,0,0,1-6-5.9A43.1906,43.1906,0,0,1,28.55,32.1a4.01693,4.01693,0,0,1,1.80013-7.57991,6.27858,6.27858,0,0,1,5.88985,2.65c2.69561,3.8619-.92363,7.92737-1.33976,12.11A36.00213,36.00213,0,0,0,34.29,44.56a3.99969,3.99969,0,0,1-.56,7.96Z"/><path d="M32.54,19.48a3.00019,3.00019,0,0,0-.00009-6A3.00019,3.00019,0,0,0,32.54,19.48Z"/><path d="M33.73,46.52c-.71822.08032-1.45235-.17664-1.45995-1.01006A37.00676,37.00676,0,0,1,34.98,32.01c1.18331-3.14043-1.426-5.89686-4.63-5.48988A2.00292,2.00292,0,0,0,30.00008,30.49,1.00685,1.00685,0,0,1,30.76,31.82a41.25935,41.25935,0,0,0-2.49,14.77,4.01722,4.01722,0,0,0,4,3.93h1.46A2.00019,2.00019,0,0,0,33.73,46.52Z"/></svg>